PathFileType	3	(X/Y/Z)	D:\minhoCalibration\240510\subject1_KPNP\preferred\preferred07.trc
DataRate	CameraRate	NumFrames	NumMarkers	Units	OrigDataRate	OrigDataStartFrame	OrigNumFrames
200.0	200.0	12	10	mm	200.0	354	252	
Frame#	Time	Left_Ankle_Outer1			Left_Ankle_Inner1			Left_Knee_Outer1			Left_Knee_Inner1			Left_Wrist1			Right_Wrist1			Right_Knee_Inner1			Right_Knee_Outer1			Right_Ankle_Inner1			Right_Ankle_Outer1			
		X1	Y1	Z1	X2	Y2	Z2	X3	Y3	Z3	X4	Y4	Z4	X5	Y5	Z5	X6	Y6	Z6	X7	Y7	Z7	X8	Y8	Z8	X9	Y9	Z9	X10	Y10	Z10	
354	1.76	-462.9472	130.93799	-601.05884	-521.16913	130.31091	-590.0517	-508.70453	583.29675	-531.09601	-603.06201	526.62866	-570.04749	-528.58008	982.79413	-718.70111	-746.32062	987.35504	-997.81793	-710.81384	510.02039	-974.93304	-751.14471	546.9906	-1071.6256	-636.20068	110.0414	-1139.1755	-715.88245	106.45399	-1213.7416
355	1.765	-463.20953	131.09909	-600.94836	-521.44397	130.93649	-589.71655	-506.05643	583.75269	-529.12421	-601.24249	527.46802	-566.75275	-527.49634	982.37738	-717.77271	-745.69269	987.31696	-996.69513	-710.11731	509.78165	-974.29895	-750.47546	546.87128	-1070.8695	-636.06897	109.9391	-1139.0356	-716.31464	104.84762	-1213.5948
356	1.77	-463.56348	131.32388	-600.98816	-521.70679	131.20451	-588.78125	-503.43442	584.04462	-527.12695	-599.43567	528.33301	-563.37903	-526.39954	981.92993	-716.83685	-745.16315	986.86548	-995.03595	-709.53271	509.55676	-973.70593	-749.685	546.77142	-1070.1979	-635.95337	109.84619	-1138.9081	-716.23962	104.95327	-1213.4357
357	1.775	-464.20847	131.39078	-601.02191	-522.39612	131.79208	-588.4223	-500.7218	584.2868	-525.13031	-597.60626	529.16315	-559.97498	-525.19489	981.43561	-715.70667	-744.54059	986.50873	-993.58911	-708.98517	509.32251	-973.06543	-749.08514	546.86121	-1069.7771	-635.79346	109.69909	-1138.6829	-716.05737	105.05696	-1213.2802
358	1.78	-465.08755	131.37666	-601.11255	-523.07385	132.02878	-587.80811	-498.07669	584.41998	-523.16791	-595.78534	529.89178	-556.57404	-524.0968	980.90936	-714.57587	-743.79901	986.15997	-992.02307	-708.35284	509.10144	-972.46368	-748.45685	546.78204	-1069.277	-635.64954	109.58094	-1138.4596	-715.9361	105.22457	-1213.1138
359	1.785	-466.13092	131.31035	-601.28943	-523.75403	132.25812	-586.92358	-495.44553	584.43964	-521.30176	-593.94769	530.57361	-553.12842	-523.00336	980.35596	-713.37323	-742.89716	985.92194	-990.47394	-708.13599	508.76968	-971.6145	-747.55847	546.60413	-1068.4152	-635.55902	109.42751	-1138.1764	-715.73401	105.44441	-1212.8683
360	1.79	-467.32706	131.22397	-601.55219	-524.84839	132.48135	-586.30682	-492.85706	584.39728	-519.36145	-592.17133	531.19196	-549.69287	-521.79279	979.80127	-711.98407	-741.77814	985.6438	-989.18256	-707.87292	508.43997	-970.92523	-746.84991	546.51147	-1067.7462	-635.42932	109.32652	-1137.9049	-715.5509	105.45501	-1212.5607
361	1.795	-468.78412	131.12975	-601.77594	-526.02325	132.69891	-585.63385	-490.30237	584.22394	-517.52985	-590.36444	531.78998	-546.27637	-520.72925	979.17889	-710.64038	-740.80786	985.24249	-987.7735	-707.60138	508.11487	-970.06628	-746.31885	546.58929	-1067.2944	-635.45502	109.16947	-1137.5863	-715.43079	105.53178	-1212.2819
362	1.8	-470.42645	130.91255	-601.97766	-527.45502	132.9288	-584.98145	-487.80032	584.00989	-515.60504	-588.62524	532.29858	-542.8717	-519.41278	978.55457	-709.19324	-739.93774	984.68616	-985.42657	-707.39191	507.7663	-969.19293	-745.78748	546.54822	-1066.5261	-635.14172	109.10671	-1137.3016	-714.79376	106.48808	-1212.2579
363	1.805	-472.39642	130.69345	-602.20557	-528.96765	132.97971	-584.40497	-485.30832	583.67828	-513.7735	-586.87805	532.78522	-539.47522	-518.43103	977.90637	-707.67639	-738.85724	984.47839	-983.68201	-707.224	507.46512	-968.117	-745.00397	546.31055	-1065.5162	-635.11688	108.95691	-1136.8673	-714.68188	106.50333	-1212.0377
364	1.81	-474.48813	130.45441	-602.5603	-530.61292	133.1447	-583.72174	-482.48425	583.36774	-512.15491	-585.21313	532.99127	-536.18634	-517.14899	977.23926	-706.0318	-737.91949	983.84137	-981.71301	-706.87823	507.36325	-967.22198	-744.51611	546.35724	-1064.762	-634.83899	108.84113	-1136.5874	-714.46161	106.69134	-1211.6646
365	1.815	-476.75421	130.19409	-602.75305	-532.5083	133.21092	-582.99591	-480.14944	582.8114	-510.3013	-583.56763	533.26453	-532.81445	-515.88861	976.52124	-704.37708	-736.83588	983.37109	-979.84064	-706.71344	506.74033	-966.11237	-743.99872	546.198	-1063.8741	-634.73999	108.68861	-1136.1793	-714.21533	106.97115	-1211.3508
